<svg xmlns="http://www.w3.org/2000/svg" viewBox="7951 1382 44 44">
  <defs>
    <style>
      .cls-1 {
        fill: #7a6b74;
      }
    </style>
  </defs>
  <path id="Exclusion_2" data-name="Exclusion 2" class="cls-1" d="M-7125-128a22.026,22.026,0,0,1-22-22,22.025,22.025,0,0,1,22-22,22.024,22.024,0,0,1,22,22A22.025,22.025,0,0,1-7125-128Zm-4.745-37.079a8.071,8.071,0,0,0-5.061,2.02,5.481,5.481,0,0,0-1.47,4.06c.086,5.994,1.306,11.32,3.264,14.247l.1.148c1.964,2.936,6.564,9.811,11.886,9.811a6.018,6.018,0,0,0,.82-.056,17.5,17.5,0,0,0,4.982-2l-6.959-5.472a3.436,3.436,0,0,1-1.615.47,2.075,2.075,0,0,1-1.735-.9c-1.249-1.683-5.161-9.481-5.327-9.812-.014-.03-1.1-2.62,1.373-3.739l-.258-8.775Zm10.155,21.1-.1.007-1.914,1.01,7.155,5.681s.427-1.3.6-1.912a1.251,1.251,0,0,0-.429-1.128c-.036-.029-3.623-2.876-4.3-3.3a1.951,1.951,0,0,0-1.016-.355Zm-9.14-21.13a.867.867,0,0,0-.242.028c0,.08.09,8.172.258,8.513.037.076.122.115.251.115a2.638,2.638,0,0,0,1.381-.635,7.319,7.319,0,0,0,.6-.7l-.086-5.994s-.011-.44-.945-.954A2.568,2.568,0,0,0-7128.729-165.106Z" transform="translate(15098 1554)"/>
</svg>
