<svg xmlns="http://www.w3.org/2000/svg" viewBox="9883.988 1210.119 48.168 49.177">
  <defs>
    <style>
      .cls-1 {
        fill: #df772b;
      }

      .cls-2 {
        fill: #fefcfb;
      }
    </style>
  </defs>
  <g id="Dislike" transform="translate(9883.988 1210.119)">
    <g id="Group_1" data-name="Group 1" transform="translate(0 0)">
      <ellipse id="Ellipse_1" data-name="Ellipse 1" class="cls-1" cx="24.084" cy="24.589" rx="24.084" ry="24.589"/>
      <path id="Path_1" data-name="Path 1" class="cls-2" d="M490.9,87.56a2.575,2.575,0,0,0,2.546,2.6h8.4s.732.379.332,2.271c-.234,1.106-2.819,8.406,1.853,9.7,2.36.438.761-3.407,1.883-5.209s6.5-9.1,6.5-9.54V73.4a.791.791,0,0,0-.78-.8h-14.7a2.287,2.287,0,0,0-1.983,1.168,2.386,2.386,0,0,0-.007,2.338,2.313,2.313,0,0,0-1.817,1.785,2.364,2.364,0,0,0,.89,2.408,2.338,2.338,0,0,0,.137,4.672h-.7a2.507,2.507,0,0,0-1.8.754,2.615,2.615,0,0,0-.746,1.835Z" transform="translate(-482.964 -60.73)"/>
      <path id="Path_2" data-name="Path 2" class="cls-2" d="M717.18,87.56h7.668a.791.791,0,0,0,.78-.8V73.4a.791.791,0,0,0-.78-.8H717.18a.791.791,0,0,0-.78.8V86.773a.8.8,0,0,0,.23.559A.766.766,0,0,0,717.18,87.56Zm.858-4.393a.757.757,0,1,1-.741.757.749.749,0,0,1,.741-.757Zm0,2.062a.757.757,0,1,1-.741.757.749.749,0,0,1,.741-.757Z" transform="translate(-686.466 -60.73)"/>
    </g>
  </g>
</svg>
