<svg xmlns="http://www.w3.org/2000/svg" viewBox="10337 1210.119 48.168 49.177">
  <defs>
    <style>
      .cls-1 {
        fill: #9fb250;
      }

      .cls-2 {
        fill: #fefcfb;
      }
    </style>
  </defs>
  <g id="Group_1" data-name="Group 1" transform="translate(10337 1210.119)">
    <ellipse id="Ellipse_1" data-name="Ellipse 1" class="cls-1" cx="24.084" cy="24.589" rx="24.084" ry="24.589"/>
    <path id="Path_1" data-name="Path 1" class="cls-2" d="M160.918,66.028a2.552,2.552,0,0,0-2.523-2.576H150.07s-.725-.375-.329-2.25c.232-1.1,2.794-8.331-1.837-9.614-2.34-.434-.754,3.376-1.866,5.164s-6.439,9.02-6.439,9.454V80.074a.784.784,0,0,0,.774.79h14.569a2.266,2.266,0,0,0,1.966-1.158,2.364,2.364,0,0,0,.007-2.317,2.292,2.292,0,0,0,1.8-1.769,2.342,2.342,0,0,0-.882-2.387A2.319,2.319,0,0,0,157.7,68.6h.687A2.554,2.554,0,0,0,160.918,66.028Z" transform="translate(-121.005 -45.136)"/>
    <path id="Path_2" data-name="Path 2" class="cls-2" d="M48.278,198.2H40.668a.784.784,0,0,0-.774.79v13.256a.784.784,0,0,0,.774.79h7.6a.784.784,0,0,0,.774-.79V198.99a.78.78,0,0,0-.218-.561.747.747,0,0,0-.547-.229Zm-.851,4.353a.75.75,0,1,1,.735-.75.742.742,0,0,1-.735.75Zm0-2.043a.75.75,0,1,1,.735-.75.758.758,0,0,1-.214.531.727.727,0,0,1-.519.221Z" transform="translate(-30.941 -177.307)"/>
  </g>
</svg>
