<svg xmlns="http://www.w3.org/2000/svg" viewBox="29 137 29.662 29.662"><defs><style>.a{fill:#df772b;}</style></defs><path class="a" d="M40.562,28.029l2.126-5.055a1.335,1.335,0,0,0-.713-1.749L36.92,19.1l-2.072-5.078a1.334,1.334,0,0,0-1.741-.732l-5.077,2.071-5.056-2.126a1.335,1.335,0,0,0-1.749.713L19.1,19l-5.078,2.072a1.334,1.334,0,0,0-.732,1.741l2.071,5.077-2.126,5.056a1.335,1.335,0,0,0,.713,1.749L19,36.823,21.076,41.9a1.334,1.334,0,0,0,1.74.732l5.078-2.072,5.056,2.126a1.336,1.336,0,0,0,1.749-.713l2.126-5.056L41.9,34.848a1.334,1.334,0,0,0,.732-1.741ZM29.37,34.318H26.554V31.595H29.37Zm0-4.76H26.554V21.605H29.37Z" transform="translate(15.869 123.87)"/></svg>