<svg xmlns="http://www.w3.org/2000/svg" viewBox="8071 1382 44 44">
  <defs>
    <style>
      .cls-1 {
        fill: #9fb250;
      }
    </style>
  </defs>
  <path id="Exclusion_3" data-name="Exclusion 3" class="cls-1" d="M-7125-128a22.026,22.026,0,0,1-22-22,22.025,22.025,0,0,1,22-22,22.024,22.024,0,0,1,22,22A22.025,22.025,0,0,1-7125-128Zm.239-36.477a14.287,14.287,0,0,0-10.38,4.5,14.113,14.113,0,0,0-3.826,10.663,14.244,14.244,0,0,0,13.276,13.277q.468.03.931.03a14.291,14.291,0,0,0,10.381-4.5,14.115,14.115,0,0,0,3.825-10.663,14.244,14.244,0,0,0-13.276-13.277Q-7124.3-164.476-7124.761-164.476Zm.548,27.322h0v-5.685a25.387,25.387,0,0,1,4.461.456c-1.093,2.993-2.719,4.9-4.46,5.23Zm-1.1,0h0c-1.743-.331-3.368-2.238-4.458-5.23a25.339,25.339,0,0,1,4.459-.456v5.685Zm3.944-.391,0,0a12.042,12.042,0,0,0,2.712-4.584,10.684,10.684,0,0,1,3.092,1.259,13.162,13.162,0,0,1-5.8,3.326Zm-6.791,0h0a13.174,13.174,0,0,1-5.806-3.326,10.673,10.673,0,0,1,3.094-1.259,12.015,12.015,0,0,0,2.712,4.584Zm13.357-4.139a11.094,11.094,0,0,0-3.517-1.492,24.964,24.964,0,0,0,.94-6.516h5.744a13.186,13.186,0,0,1-3.165,8.008Zm-19.923,0h0a13.162,13.162,0,0,1-3.165-8.008h5.742a25.079,25.079,0,0,0,.94,6.516A11.051,11.051,0,0,0-7134.721-141.684Zm15.313-1.747a26.716,26.716,0,0,0-4.8-.506v-5.756h5.744a24.054,24.054,0,0,1-.938,6.261Zm-10.705,0h0a23.986,23.986,0,0,1-.936-6.261h5.742v5.756A26.711,26.711,0,0,0-7130.113-143.43Zm18.479-7.357h-5.742a25.047,25.047,0,0,0-.936-6.506,11.559,11.559,0,0,0,3.541-1.471,12.983,12.983,0,0,1,3.137,7.975Zm-6.835,0h-5.744v-5.756a27.328,27.328,0,0,0,4.807-.5,24.045,24.045,0,0,1,.937,6.253Zm-6.84,0h-5.741a24,24,0,0,1,.935-6.255,27.33,27.33,0,0,0,4.807.5v5.755Zm-6.837,0h-5.741a12.986,12.986,0,0,1,3.139-7.976,11.532,11.532,0,0,0,3.539,1.471,25.057,25.057,0,0,0-.936,6.5Zm7.934-6.852h0v-5.685c1.746.331,3.372,2.239,4.463,5.236a25.836,25.836,0,0,1-4.462.45Zm-1.1,0h0a25.874,25.874,0,0,1-4.462-.45c1.093-3,2.72-4.905,4.463-5.236v5.685Zm6.665-.7h0a12.019,12.019,0,0,0-2.719-4.594,13.181,13.181,0,0,1,5.836,3.352A11.193,11.193,0,0,1-7118.644-158.339Zm-12.231,0a11.194,11.194,0,0,1-3.116-1.241,13.152,13.152,0,0,1,5.836-3.354,12.014,12.014,0,0,0-2.719,4.594Z" transform="translate(15218 1554)"/>
</svg>
